<svg xmlns="http://www.w3.org/2000/svg" xmlns:xlink="http://www.w3.org/1999/xlink" width="100" zoomAndPan="magnify" viewBox="0 0 75 30.000001" height="40" preserveAspectRatio="xMidYMid meet" version="1.0"><defs><g/><clipPath id="275da700a5"><path d="M 1.210938 7.230469 L 16.601562 7.230469 L 16.601562 21 L 1.210938 21 Z M 1.210938 7.230469 " clip-rule="nonzero"/></clipPath><clipPath id="440082e378"><path d="M 2 7.230469 L 7 7.230469 L 7 12 L 2 12 Z M 2 7.230469 " clip-rule="nonzero"/></clipPath></defs><g fill="#d4d5d6" fill-opacity="1"><g transform="translate(15.583832, 15.770862)"><g><path d="M 6.871094 0 L 4.132812 -3.769531 L 6.601562 -7.253906 L 4.777344 -7.253906 L 2.394531 -3.894531 L 2.394531 -7.253906 L 0.828125 -7.253906 L 0.828125 0 L 2.394531 0 L 2.394531 -3.53125 L 4.953125 0 Z M 6.871094 0 "/></g></g></g><g fill="#d4d5d6" fill-opacity="1"><g transform="translate(22.888311, 15.770862)"><g><path d="M 3.585938 -5.625 C 2.859375 -5.625 2.363281 -5.398438 1.957031 -4.902344 L 1.6875 -5.59375 L 0.726562 -5.59375 L 0.726562 0 L 2.238281 0 L 2.238281 -2.902344 C 2.238281 -3.8125 2.570312 -4.195312 3.417969 -4.195312 L 4.082031 -4.195312 L 4.082031 -5.625 Z M 3.585938 -5.625 "/></g></g></g><g fill="#d4d5d6" fill-opacity="1"><g transform="translate(27.612908, 15.770862)"><g><path d="M 6.15625 -2.808594 C 6.15625 -4.425781 4.972656 -5.75 3.253906 -5.75 C 1.59375 -5.75 0.351562 -4.476562 0.351562 -2.796875 C 0.351562 -1.117188 1.605469 0.164062 3.253906 0.164062 C 4.558594 0.164062 5.625 -0.609375 6.03125 -1.832031 L 4.445312 -1.832031 C 4.21875 -1.429688 3.78125 -1.179688 3.253906 -1.179688 C 2.519531 -1.179688 2.019531 -1.605469 1.886719 -2.371094 L 6.125 -2.371094 C 6.144531 -2.519531 6.15625 -2.664062 6.15625 -2.808594 Z M 3.253906 -4.457031 C 3.9375 -4.457031 4.425781 -4.082031 4.640625 -3.398438 L 1.925781 -3.398438 C 2.101562 -4.0625 2.578125 -4.457031 3.253906 -4.457031 Z M 3.253906 -4.457031 "/></g></g></g><g fill="#d4d5d6" fill-opacity="1"><g transform="translate(34.627283, 15.770862)"><g><path d="M 4.828125 -7.605469 L 4.828125 -5.285156 C 4.394531 -5.585938 3.875 -5.75 3.292969 -5.75 C 1.59375 -5.75 0.351562 -4.484375 0.351562 -2.785156 C 0.351562 -1.097656 1.59375 0.175781 3.292969 0.175781 C 3.980469 0.175781 4.578125 -0.0625 5.046875 -0.457031 L 5.222656 0.0117188 L 6.339844 0.0117188 L 6.339844 -7.605469 Z M 3.417969 -1.253906 C 2.539062 -1.253906 1.894531 -1.917969 1.894531 -2.785156 C 1.894531 -3.667969 2.539062 -4.320312 3.417969 -4.320312 C 4.300781 -4.320312 4.941406 -3.667969 4.941406 -2.785156 C 4.941406 -1.917969 4.300781 -1.253906 3.417969 -1.253906 Z M 3.417969 -1.253906 "/></g></g></g><g fill="#b216f2" fill-opacity="1"><g transform="translate(42.214572, 15.770862)"><g><path d="M 9.707031 0 L 8.589844 -7.253906 L 7.015625 -7.253906 L 5.046875 -2.796875 L 3.078125 -7.253906 L 1.511719 -7.253906 L 0.371094 0 L 1.96875 0 L 2.683594 -4.722656 L 4.847656 -0.0117188 L 5.230469 -0.0117188 L 7.398438 -4.722656 L 8.113281 0 Z M 9.707031 0 "/></g></g></g><g fill="#b216f2" fill-opacity="1"><g transform="translate(52.824206, 15.770862)"><g><path d="M 5.285156 -5.59375 L 5.128906 -5.066406 C 4.640625 -5.492188 4.007812 -5.75 3.285156 -5.75 C 1.605469 -5.75 0.351562 -4.484375 0.351562 -2.796875 C 0.351562 -1.109375 1.605469 0.164062 3.285156 0.164062 C 4 0.164062 4.621094 -0.0820312 5.097656 -0.507812 L 5.230469 0 L 6.414062 0 L 6.414062 -5.59375 Z M 3.410156 -1.265625 C 2.527344 -1.265625 1.886719 -1.925781 1.886719 -2.796875 C 1.886719 -3.679688 2.527344 -4.332031 3.410156 -4.332031 C 4.289062 -4.332031 4.933594 -3.679688 4.933594 -2.796875 C 4.933594 -1.917969 4.289062 -1.265625 3.410156 -1.265625 Z M 3.410156 -1.265625 "/></g></g></g><g fill="#b216f2" fill-opacity="1"><g transform="translate(60.48096, 15.770862)"><g><path d="M 5.625 0 L 3.710938 -2.941406 L 5.511719 -5.59375 L 3.855469 -5.59375 L 2.808594 -3.96875 L 1.84375 -5.59375 L 0.132812 -5.59375 L 1.90625 -2.871094 L 0.0117188 0 L 1.679688 0 L 2.808594 -1.84375 L 3.917969 0 Z M 5.625 0 "/></g></g></g><g fill="#b216f2" fill-opacity="1"><g transform="translate(66.635365, 15.770862)"><g><path d="M 5.625 0 L 3.710938 -2.941406 L 5.511719 -5.59375 L 3.855469 -5.59375 L 2.808594 -3.96875 L 1.84375 -5.59375 L 0.132812 -5.59375 L 1.90625 -2.871094 L 0.0117188 0 L 1.679688 0 L 2.808594 -1.84375 L 3.917969 0 Z M 5.625 0 "/></g></g></g><g clip-path="url(#275da700a5)"><path fill="#b216f2" d="M 11.46875 14.035156 L 16.066406 7.574219 C 16.171875 7.429688 16.066406 7.230469 15.890625 7.230469 L 10.878906 7.230469 C 10.808594 7.230469 10.742188 7.261719 10.699219 7.320312 L 6.019531 13.890625 C 6.019531 13.894531 6.015625 13.898438 6.015625 13.902344 C 6.011719 13.902344 6.007812 13.90625 6.007812 13.90625 L 6.007812 13.910156 L 1.316406 20.496094 C 1.210938 20.640625 1.316406 20.84375 1.496094 20.84375 L 6.503906 20.84375 C 6.574219 20.84375 6.644531 20.808594 6.683594 20.75 L 8.691406 17.933594 L 10.699219 20.75 C 10.742188 20.808594 10.808594 20.84375 10.878906 20.84375 L 15.890625 20.84375 C 16.066406 20.84375 16.171875 20.640625 16.066406 20.496094 L 11.46875 14.035156 " fill-opacity="1" fill-rule="nonzero"/></g><g clip-path="url(#440082e378)"><path fill="#d4d5d6" d="M 4.46875 11.414062 C 5.625 11.414062 6.5625 10.480469 6.5625 9.324219 C 6.5625 8.167969 5.625 7.230469 4.46875 7.230469 C 3.3125 7.230469 2.375 8.167969 2.375 9.324219 C 2.375 10.480469 3.3125 11.414062 4.46875 11.414062 " fill-opacity="1" fill-rule="nonzero"/></g><g fill="#d4d5d6" fill-opacity="1"><g transform="translate(17.952867, 21.016751)"><g><path d="M 0.609375 0 L 0.34375 0 L 0.34375 -2.234375 L 0.609375 -2.234375 Z M 0.609375 0 "/></g></g></g><g fill="#d4d5d6" fill-opacity="1"><g transform="translate(19.218975, 21.016751)"><g><path d="M 0.296875 0 L 0.296875 -1.6875 L 0.53125 -1.6875 L 0.53125 -1.421875 L 0.5625 -1.421875 C 0.625 -1.515625 0.695312 -1.585938 0.78125 -1.640625 C 0.863281 -1.691406 0.96875 -1.71875 1.09375 -1.71875 C 1.300781 -1.71875 1.445312 -1.664062 1.53125 -1.5625 C 1.625 -1.457031 1.671875 -1.300781 1.671875 -1.09375 L 1.671875 0 L 1.421875 0 L 1.421875 -1.078125 C 1.421875 -1.179688 1.40625 -1.265625 1.375 -1.328125 C 1.351562 -1.390625 1.316406 -1.429688 1.265625 -1.453125 C 1.210938 -1.484375 1.140625 -1.5 1.046875 -1.5 C 0.898438 -1.5 0.78125 -1.445312 0.6875 -1.34375 C 0.59375 -1.25 0.546875 -1.09375 0.546875 -0.875 L 0.546875 0 Z M 0.296875 0 "/></g></g></g><g fill="#d4d5d6" fill-opacity="1"><g transform="translate(21.491644, 21.016751)"><g><path d="M 1.140625 -0.265625 L 1.21875 -0.09375 C 1.175781 -0.0507812 1.125 -0.0195312 1.0625 0 C 1 0.0195312 0.929688 0.03125 0.859375 0.03125 C 0.535156 0.03125 0.375 -0.128906 0.375 -0.453125 L 0.375 -1.484375 L 0.078125 -1.484375 L 0.078125 -1.6875 L 0.375 -1.6875 L 0.375 -2.046875 L 0.625 -2.09375 L 0.625 -1.6875 L 1.171875 -1.6875 L 1.171875 -1.484375 L 0.625 -1.484375 L 0.625 -0.484375 C 0.625 -0.285156 0.707031 -0.1875 0.875 -0.1875 C 0.96875 -0.1875 1.046875 -0.210938 1.109375 -0.265625 Z M 1.140625 -0.265625 "/></g></g></g><g fill="#d4d5d6" fill-opacity="1"><g transform="translate(23.103517, 21.016751)"><g><path d="M 0.421875 -2.015625 C 0.367188 -2.015625 0.320312 -2.03125 0.28125 -2.0625 C 0.25 -2.101562 0.234375 -2.144531 0.234375 -2.1875 C 0.234375 -2.238281 0.25 -2.28125 0.28125 -2.3125 C 0.320312 -2.351562 0.367188 -2.375 0.421875 -2.375 C 0.472656 -2.375 0.515625 -2.351562 0.546875 -2.3125 C 0.578125 -2.28125 0.59375 -2.238281 0.59375 -2.1875 C 0.59375 -2.144531 0.578125 -2.101562 0.546875 -2.0625 C 0.515625 -2.03125 0.472656 -2.015625 0.421875 -2.015625 Z M 0.296875 0 L 0.296875 -1.6875 L 0.546875 -1.6875 L 0.546875 0 Z M 0.296875 0 "/></g></g></g><g fill="#d4d5d6" fill-opacity="1"><g transform="translate(24.265127, 21.016751)"><g><path d="M 0.875 0.71875 C 0.601562 0.71875 0.40625 0.671875 0.28125 0.578125 C 0.164062 0.492188 0.109375 0.378906 0.109375 0.234375 C 0.109375 0.140625 0.132812 0.0625 0.1875 0 C 0.25 -0.0507812 0.332031 -0.09375 0.4375 -0.125 L 0.4375 -0.15625 C 0.382812 -0.175781 0.34375 -0.207031 0.3125 -0.25 C 0.289062 -0.289062 0.28125 -0.335938 0.28125 -0.390625 C 0.28125 -0.460938 0.300781 -0.519531 0.34375 -0.5625 C 0.382812 -0.601562 0.445312 -0.632812 0.53125 -0.65625 L 0.53125 -0.6875 C 0.34375 -0.78125 0.25 -0.9375 0.25 -1.15625 C 0.25 -1.269531 0.273438 -1.367188 0.328125 -1.453125 C 0.378906 -1.535156 0.453125 -1.597656 0.546875 -1.640625 C 0.640625 -1.691406 0.75 -1.71875 0.875 -1.71875 C 1.007812 -1.71875 1.125 -1.6875 1.21875 -1.625 C 1.257812 -1.664062 1.285156 -1.707031 1.296875 -1.75 C 1.316406 -1.800781 1.332031 -1.851562 1.34375 -1.90625 L 1.375 -1.9375 L 1.578125 -1.890625 C 1.566406 -1.796875 1.539062 -1.71875 1.5 -1.65625 C 1.457031 -1.601562 1.398438 -1.554688 1.328125 -1.515625 L 1.328125 -1.484375 C 1.378906 -1.441406 1.414062 -1.390625 1.4375 -1.328125 C 1.46875 -1.273438 1.484375 -1.210938 1.484375 -1.140625 C 1.484375 -1.023438 1.457031 -0.925781 1.40625 -0.84375 C 1.351562 -0.757812 1.28125 -0.691406 1.1875 -0.640625 C 1.09375 -0.597656 0.988281 -0.578125 0.875 -0.578125 C 0.851562 -0.578125 0.828125 -0.578125 0.796875 -0.578125 C 0.753906 -0.578125 0.722656 -0.578125 0.703125 -0.578125 C 0.648438 -0.578125 0.609375 -0.5625 0.578125 -0.53125 C 0.546875 -0.507812 0.53125 -0.476562 0.53125 -0.4375 C 0.53125 -0.382812 0.546875 -0.34375 0.578125 -0.3125 C 0.609375 -0.289062 0.664062 -0.273438 0.75 -0.265625 L 1.140625 -0.265625 C 1.316406 -0.253906 1.445312 -0.210938 1.53125 -0.140625 C 1.613281 -0.0664062 1.65625 0.0351562 1.65625 0.171875 C 1.65625 0.273438 1.628906 0.367188 1.578125 0.453125 C 1.523438 0.535156 1.4375 0.597656 1.3125 0.640625 C 1.195312 0.691406 1.050781 0.71875 0.875 0.71875 Z M 0.875 -0.78125 C 0.988281 -0.78125 1.078125 -0.8125 1.140625 -0.875 C 1.210938 -0.9375 1.25 -1.023438 1.25 -1.140625 C 1.25 -1.253906 1.210938 -1.34375 1.140625 -1.40625 C 1.078125 -1.476562 0.988281 -1.515625 0.875 -1.515625 C 0.75 -1.515625 0.65625 -1.484375 0.59375 -1.421875 C 0.53125 -1.359375 0.5 -1.265625 0.5 -1.140625 C 0.5 -1.023438 0.53125 -0.9375 0.59375 -0.875 C 0.65625 -0.8125 0.75 -0.78125 0.875 -0.78125 Z M 0.875 0.5 C 1 0.5 1.097656 0.484375 1.171875 0.453125 C 1.253906 0.429688 1.3125 0.394531 1.34375 0.34375 C 1.382812 0.300781 1.40625 0.253906 1.40625 0.203125 C 1.40625 0.148438 1.394531 0.109375 1.375 0.078125 C 1.351562 0.046875 1.320312 0.0195312 1.28125 0 C 1.238281 -0.0078125 1.179688 -0.015625 1.109375 -0.015625 L 0.734375 -0.03125 L 0.671875 -0.03125 C 0.460938 -0.03125 0.359375 0.046875 0.359375 0.203125 C 0.359375 0.398438 0.53125 0.5 0.875 0.5 Z M 0.875 0.5 "/></g></g></g><g fill="#d4d5d6" fill-opacity="1"><g transform="translate(26.322654, 21.016751)"><g><path d="M 0.296875 0 L 0.296875 -1.6875 L 0.53125 -1.6875 L 0.53125 -1.421875 L 0.5625 -1.421875 C 0.644531 -1.609375 0.796875 -1.703125 1.015625 -1.703125 C 1.128906 -1.703125 1.210938 -1.679688 1.265625 -1.640625 L 1.203125 -1.4375 L 1.171875 -1.421875 C 1.109375 -1.453125 1.039062 -1.46875 0.96875 -1.46875 C 0.832031 -1.46875 0.726562 -1.414062 0.65625 -1.3125 C 0.582031 -1.21875 0.546875 -1.054688 0.546875 -0.828125 L 0.546875 0 Z M 0.296875 0 "/></g></g></g><g fill="#d4d5d6" fill-opacity="1"><g transform="translate(27.952968, 21.016751)"><g><path d="M 0.703125 0.03125 C 0.535156 0.03125 0.40625 -0.0078125 0.3125 -0.09375 C 0.21875 -0.1875 0.171875 -0.3125 0.171875 -0.46875 C 0.171875 -0.570312 0.191406 -0.65625 0.234375 -0.71875 C 0.273438 -0.789062 0.335938 -0.847656 0.421875 -0.890625 C 0.503906 -0.929688 0.617188 -0.96875 0.765625 -1 C 0.890625 -1.019531 0.984375 -1.039062 1.046875 -1.0625 C 1.109375 -1.082031 1.148438 -1.109375 1.171875 -1.140625 C 1.191406 -1.179688 1.203125 -1.222656 1.203125 -1.265625 C 1.203125 -1.347656 1.175781 -1.40625 1.125 -1.4375 C 1.070312 -1.476562 0.988281 -1.5 0.875 -1.5 C 0.757812 -1.5 0.660156 -1.476562 0.578125 -1.4375 C 0.503906 -1.394531 0.4375 -1.332031 0.375 -1.25 L 0.34375 -1.25 L 0.21875 -1.421875 C 0.289062 -1.515625 0.378906 -1.585938 0.484375 -1.640625 C 0.597656 -1.691406 0.726562 -1.71875 0.875 -1.71875 C 1.070312 -1.71875 1.21875 -1.675781 1.3125 -1.59375 C 1.40625 -1.507812 1.453125 -1.390625 1.453125 -1.234375 L 1.453125 -0.328125 C 1.453125 -0.234375 1.492188 -0.1875 1.578125 -0.1875 C 1.597656 -0.1875 1.625 -0.191406 1.65625 -0.203125 L 1.671875 -0.203125 L 1.703125 -0.03125 C 1.679688 -0.0078125 1.65625 0 1.625 0 C 1.59375 0.0078125 1.5625 0.015625 1.53125 0.015625 C 1.4375 0.015625 1.363281 -0.00390625 1.3125 -0.046875 C 1.269531 -0.0859375 1.242188 -0.148438 1.234375 -0.234375 L 1.203125 -0.234375 C 1.148438 -0.140625 1.082031 -0.0703125 1 -0.03125 C 0.925781 0.0078125 0.828125 0.03125 0.703125 0.03125 Z M 0.75 -0.171875 C 0.84375 -0.171875 0.921875 -0.191406 0.984375 -0.234375 C 1.054688 -0.273438 1.113281 -0.332031 1.15625 -0.40625 C 1.195312 -0.488281 1.21875 -0.582031 1.21875 -0.6875 L 1.21875 -0.90625 L 1.1875 -0.90625 C 1.144531 -0.882812 1.097656 -0.863281 1.046875 -0.84375 C 0.992188 -0.820312 0.914062 -0.804688 0.8125 -0.796875 C 0.71875 -0.785156 0.640625 -0.765625 0.578125 -0.734375 C 0.523438 -0.703125 0.484375 -0.664062 0.453125 -0.625 C 0.429688 -0.582031 0.421875 -0.53125 0.421875 -0.46875 C 0.421875 -0.375 0.445312 -0.300781 0.5 -0.25 C 0.5625 -0.195312 0.644531 -0.171875 0.75 -0.171875 Z M 0.75 -0.171875 "/></g></g></g><g fill="#d4d5d6" fill-opacity="1"><g transform="translate(30.027398, 21.016751)"><g><path d="M 1.140625 -0.265625 L 1.21875 -0.09375 C 1.175781 -0.0507812 1.125 -0.0195312 1.0625 0 C 1 0.0195312 0.929688 0.03125 0.859375 0.03125 C 0.535156 0.03125 0.375 -0.128906 0.375 -0.453125 L 0.375 -1.484375 L 0.078125 -1.484375 L 0.078125 -1.6875 L 0.375 -1.6875 L 0.375 -2.046875 L 0.625 -2.09375 L 0.625 -1.6875 L 1.171875 -1.6875 L 1.171875 -1.484375 L 0.625 -1.484375 L 0.625 -0.484375 C 0.625 -0.285156 0.707031 -0.1875 0.875 -0.1875 C 0.96875 -0.1875 1.046875 -0.210938 1.109375 -0.265625 Z M 1.140625 -0.265625 "/></g></g></g><g fill="#d4d5d6" fill-opacity="1"><g transform="translate(31.639271, 21.016751)"><g><path d="M 0.421875 -2.015625 C 0.367188 -2.015625 0.320312 -2.03125 0.28125 -2.0625 C 0.25 -2.101562 0.234375 -2.144531 0.234375 -2.1875 C 0.234375 -2.238281 0.25 -2.28125 0.28125 -2.3125 C 0.320312 -2.351562 0.367188 -2.375 0.421875 -2.375 C 0.472656 -2.375 0.515625 -2.351562 0.546875 -2.3125 C 0.578125 -2.28125 0.59375 -2.238281 0.59375 -2.1875 C 0.59375 -2.144531 0.578125 -2.101562 0.546875 -2.0625 C 0.515625 -2.03125 0.472656 -2.015625 0.421875 -2.015625 Z M 0.296875 0 L 0.296875 -1.6875 L 0.546875 -1.6875 L 0.546875 0 Z M 0.296875 0 "/></g></g></g><g fill="#d4d5d6" fill-opacity="1"><g transform="translate(32.800882, 21.016751)"><g><path d="M 0.96875 0.03125 C 0.8125 0.03125 0.671875 0 0.546875 -0.0625 C 0.429688 -0.132812 0.34375 -0.234375 0.28125 -0.359375 C 0.21875 -0.492188 0.1875 -0.65625 0.1875 -0.84375 C 0.1875 -1.03125 0.21875 -1.1875 0.28125 -1.3125 C 0.34375 -1.445312 0.429688 -1.546875 0.546875 -1.609375 C 0.671875 -1.679688 0.8125 -1.71875 0.96875 -1.71875 C 1.125 -1.71875 1.257812 -1.679688 1.375 -1.609375 C 1.5 -1.546875 1.59375 -1.445312 1.65625 -1.3125 C 1.71875 -1.1875 1.75 -1.03125 1.75 -0.84375 C 1.75 -0.65625 1.71875 -0.492188 1.65625 -0.359375 C 1.59375 -0.234375 1.5 -0.132812 1.375 -0.0625 C 1.257812 0 1.125 0.03125 0.96875 0.03125 Z M 0.96875 -0.1875 C 1.132812 -0.1875 1.257812 -0.238281 1.34375 -0.34375 C 1.4375 -0.457031 1.484375 -0.625 1.484375 -0.84375 C 1.484375 -1.070312 1.4375 -1.238281 1.34375 -1.34375 C 1.257812 -1.445312 1.132812 -1.5 0.96875 -1.5 C 0.800781 -1.5 0.671875 -1.441406 0.578125 -1.328125 C 0.492188 -1.222656 0.453125 -1.0625 0.453125 -0.84375 C 0.453125 -0.625 0.492188 -0.457031 0.578125 -0.34375 C 0.671875 -0.238281 0.800781 -0.1875 0.96875 -0.1875 Z M 0.96875 -0.1875 "/></g></g></g><g fill="#d4d5d6" fill-opacity="1"><g transform="translate(35.067404, 21.016751)"><g><path d="M 0.296875 0 L 0.296875 -1.6875 L 0.53125 -1.6875 L 0.53125 -1.421875 L 0.5625 -1.421875 C 0.625 -1.515625 0.695312 -1.585938 0.78125 -1.640625 C 0.863281 -1.691406 0.96875 -1.71875 1.09375 -1.71875 C 1.300781 -1.71875 1.445312 -1.664062 1.53125 -1.5625 C 1.625 -1.457031 1.671875 -1.300781 1.671875 -1.09375 L 1.671875 0 L 1.421875 0 L 1.421875 -1.078125 C 1.421875 -1.179688 1.40625 -1.265625 1.375 -1.328125 C 1.351562 -1.390625 1.316406 -1.429688 1.265625 -1.453125 C 1.210938 -1.484375 1.140625 -1.5 1.046875 -1.5 C 0.898438 -1.5 0.78125 -1.445312 0.6875 -1.34375 C 0.59375 -1.25 0.546875 -1.09375 0.546875 -0.875 L 0.546875 0 Z M 0.296875 0 "/></g></g></g><g fill="#d4d5d6" fill-opacity="1"><g transform="translate(37.340072, 21.016751)"><g/></g></g><g fill="#d4d5d6" fill-opacity="1"><g transform="translate(38.432529, 21.016751)"><g><path d="M 0.96875 0.03125 C 0.8125 0.03125 0.671875 0 0.546875 -0.0625 C 0.429688 -0.132812 0.34375 -0.234375 0.28125 -0.359375 C 0.21875 -0.492188 0.1875 -0.65625 0.1875 -0.84375 C 0.1875 -1.03125 0.21875 -1.1875 0.28125 -1.3125 C 0.34375 -1.445312 0.429688 -1.546875 0.546875 -1.609375 C 0.671875 -1.679688 0.8125 -1.71875 0.96875 -1.71875 C 1.125 -1.71875 1.257812 -1.679688 1.375 -1.609375 C 1.5 -1.546875 1.59375 -1.445312 1.65625 -1.3125 C 1.71875 -1.1875 1.75 -1.03125 1.75 -0.84375 C 1.75 -0.65625 1.71875 -0.492188 1.65625 -0.359375 C 1.59375 -0.234375 1.5 -0.132812 1.375 -0.0625 C 1.257812 0 1.125 0.03125 0.96875 0.03125 Z M 0.96875 -0.1875 C 1.132812 -0.1875 1.257812 -0.238281 1.34375 -0.34375 C 1.4375 -0.457031 1.484375 -0.625 1.484375 -0.84375 C 1.484375 -1.070312 1.4375 -1.238281 1.34375 -1.34375 C 1.257812 -1.445312 1.132812 -1.5 0.96875 -1.5 C 0.800781 -1.5 0.671875 -1.441406 0.578125 -1.328125 C 0.492188 -1.222656 0.453125 -1.0625 0.453125 -0.84375 C 0.453125 -0.625 0.492188 -0.457031 0.578125 -0.34375 C 0.671875 -0.238281 0.800781 -0.1875 0.96875 -0.1875 Z M 0.96875 -0.1875 "/></g></g></g><g fill="#d4d5d6" fill-opacity="1"><g transform="translate(40.699049, 21.016751)"><g><path d="M 0.375 0 L 0.375 -1.484375 L 0.078125 -1.484375 L 0.078125 -1.6875 L 0.375 -1.6875 C 0.351562 -1.757812 0.34375 -1.832031 0.34375 -1.90625 C 0.34375 -2.007812 0.363281 -2.097656 0.40625 -2.171875 C 0.457031 -2.253906 0.523438 -2.3125 0.609375 -2.34375 C 0.691406 -2.382812 0.789062 -2.40625 0.90625 -2.40625 C 1.070312 -2.40625 1.195312 -2.367188 1.28125 -2.296875 L 1.1875 -2.125 L 1.15625 -2.109375 C 1.09375 -2.160156 1.007812 -2.1875 0.90625 -2.1875 C 0.800781 -2.1875 0.722656 -2.160156 0.671875 -2.109375 C 0.617188 -2.054688 0.59375 -1.984375 0.59375 -1.890625 C 0.59375 -1.835938 0.601562 -1.769531 0.625 -1.6875 L 1.171875 -1.6875 L 1.171875 -1.484375 L 0.625 -1.484375 L 0.625 0 Z M 0.375 0 "/></g></g></g><g fill="#d4d5d6" fill-opacity="1"><g transform="translate(42.227938, 21.016751)"><g/></g></g><g fill="#d4d5d6" fill-opacity="1"><g transform="translate(43.320395, 21.016751)"><g><path d="M 0.578125 0 L 0.34375 0 L 0.34375 -2.234375 L 0.734375 -2.234375 L 1.40625 -0.34375 L 1.4375 -0.34375 L 2.125 -2.234375 L 2.5 -2.234375 L 2.5 0 L 2.25 0 L 2.25 -1.828125 L 2.203125 -1.828125 L 1.546875 0 L 1.28125 0 L 0.625 -1.828125 L 0.578125 -1.828125 Z M 0.578125 0 "/></g></g></g><g fill="#d4d5d6" fill-opacity="1"><g transform="translate(46.485907, 21.016751)"><g><path d="M 1.609375 -0.78125 L 0.453125 -0.78125 C 0.453125 -0.582031 0.5 -0.429688 0.59375 -0.328125 C 0.6875 -0.234375 0.8125 -0.1875 0.96875 -0.1875 C 1.09375 -0.1875 1.191406 -0.207031 1.265625 -0.25 C 1.335938 -0.300781 1.394531 -0.367188 1.4375 -0.453125 L 1.46875 -0.453125 L 1.640625 -0.359375 C 1.585938 -0.234375 1.503906 -0.132812 1.390625 -0.0625 C 1.285156 0 1.144531 0.03125 0.96875 0.03125 C 0.8125 0.03125 0.671875 0 0.546875 -0.0625 C 0.429688 -0.125 0.34375 -0.21875 0.28125 -0.34375 C 0.21875 -0.476562 0.1875 -0.644531 0.1875 -0.84375 C 0.1875 -1.039062 0.21875 -1.203125 0.28125 -1.328125 C 0.351562 -1.460938 0.445312 -1.5625 0.5625 -1.625 C 0.675781 -1.6875 0.804688 -1.71875 0.953125 -1.71875 C 1.171875 -1.71875 1.34375 -1.65625 1.46875 -1.53125 C 1.59375 -1.414062 1.65625 -1.238281 1.65625 -1 C 1.65625 -0.90625 1.648438 -0.84375 1.640625 -0.8125 Z M 1.40625 -1 C 1.394531 -1.175781 1.351562 -1.304688 1.28125 -1.390625 C 1.207031 -1.472656 1.097656 -1.515625 0.953125 -1.515625 C 0.804688 -1.515625 0.691406 -1.472656 0.609375 -1.390625 C 0.523438 -1.304688 0.472656 -1.175781 0.453125 -1 Z M 1.40625 -1 "/></g></g></g><g fill="#d4d5d6" fill-opacity="1"><g transform="translate(48.614121, 21.016751)"><g><path d="M 1.140625 -0.265625 L 1.21875 -0.09375 C 1.175781 -0.0507812 1.125 -0.0195312 1.0625 0 C 1 0.0195312 0.929688 0.03125 0.859375 0.03125 C 0.535156 0.03125 0.375 -0.128906 0.375 -0.453125 L 0.375 -1.484375 L 0.078125 -1.484375 L 0.078125 -1.6875 L 0.375 -1.6875 L 0.375 -2.046875 L 0.625 -2.09375 L 0.625 -1.6875 L 1.171875 -1.6875 L 1.171875 -1.484375 L 0.625 -1.484375 L 0.625 -0.484375 C 0.625 -0.285156 0.707031 -0.1875 0.875 -0.1875 C 0.96875 -0.1875 1.046875 -0.210938 1.109375 -0.265625 Z M 1.140625 -0.265625 "/></g></g></g><g fill="#d4d5d6" fill-opacity="1"><g transform="translate(50.225994, 21.016751)"><g><path d="M 0.296875 0 L 0.296875 -1.6875 L 0.53125 -1.6875 L 0.53125 -1.421875 L 0.5625 -1.421875 C 0.644531 -1.609375 0.796875 -1.703125 1.015625 -1.703125 C 1.128906 -1.703125 1.210938 -1.679688 1.265625 -1.640625 L 1.203125 -1.4375 L 1.171875 -1.421875 C 1.109375 -1.453125 1.039062 -1.46875 0.96875 -1.46875 C 0.832031 -1.46875 0.726562 -1.414062 0.65625 -1.3125 C 0.582031 -1.21875 0.546875 -1.054688 0.546875 -0.828125 L 0.546875 0 Z M 0.296875 0 "/></g></g></g><g fill="#d4d5d6" fill-opacity="1"><g transform="translate(51.856307, 21.016751)"><g><path d="M 0.703125 0.03125 C 0.535156 0.03125 0.40625 -0.0078125 0.3125 -0.09375 C 0.21875 -0.1875 0.171875 -0.3125 0.171875 -0.46875 C 0.171875 -0.570312 0.191406 -0.65625 0.234375 -0.71875 C 0.273438 -0.789062 0.335938 -0.847656 0.421875 -0.890625 C 0.503906 -0.929688 0.617188 -0.96875 0.765625 -1 C 0.890625 -1.019531 0.984375 -1.039062 1.046875 -1.0625 C 1.109375 -1.082031 1.148438 -1.109375 1.171875 -1.140625 C 1.191406 -1.179688 1.203125 -1.222656 1.203125 -1.265625 C 1.203125 -1.347656 1.175781 -1.40625 1.125 -1.4375 C 1.070312 -1.476562 0.988281 -1.5 0.875 -1.5 C 0.757812 -1.5 0.660156 -1.476562 0.578125 -1.4375 C 0.503906 -1.394531 0.4375 -1.332031 0.375 -1.25 L 0.34375 -1.25 L 0.21875 -1.421875 C 0.289062 -1.515625 0.378906 -1.585938 0.484375 -1.640625 C 0.597656 -1.691406 0.726562 -1.71875 0.875 -1.71875 C 1.070312 -1.71875 1.21875 -1.675781 1.3125 -1.59375 C 1.40625 -1.507812 1.453125 -1.390625 1.453125 -1.234375 L 1.453125 -0.328125 C 1.453125 -0.234375 1.492188 -0.1875 1.578125 -0.1875 C 1.597656 -0.1875 1.625 -0.191406 1.65625 -0.203125 L 1.671875 -0.203125 L 1.703125 -0.03125 C 1.679688 -0.0078125 1.65625 0 1.625 0 C 1.59375 0.0078125 1.5625 0.015625 1.53125 0.015625 C 1.4375 0.015625 1.363281 -0.00390625 1.3125 -0.046875 C 1.269531 -0.0859375 1.242188 -0.148438 1.234375 -0.234375 L 1.203125 -0.234375 C 1.148438 -0.140625 1.082031 -0.0703125 1 -0.03125 C 0.925781 0.0078125 0.828125 0.03125 0.703125 0.03125 Z M 0.75 -0.171875 C 0.84375 -0.171875 0.921875 -0.191406 0.984375 -0.234375 C 1.054688 -0.273438 1.113281 -0.332031 1.15625 -0.40625 C 1.195312 -0.488281 1.21875 -0.582031 1.21875 -0.6875 L 1.21875 -0.90625 L 1.1875 -0.90625 C 1.144531 -0.882812 1.097656 -0.863281 1.046875 -0.84375 C 0.992188 -0.820312 0.914062 -0.804688 0.8125 -0.796875 C 0.71875 -0.785156 0.640625 -0.765625 0.578125 -0.734375 C 0.523438 -0.703125 0.484375 -0.664062 0.453125 -0.625 C 0.429688 -0.582031 0.421875 -0.53125 0.421875 -0.46875 C 0.421875 -0.375 0.445312 -0.300781 0.5 -0.25 C 0.5625 -0.195312 0.644531 -0.171875 0.75 -0.171875 Z M 0.75 -0.171875 "/></g></g></g><g fill="#d4d5d6" fill-opacity="1"><g transform="translate(53.930736, 21.016751)"><g/></g></g><g fill="#d4d5d6" fill-opacity="1"><g transform="translate(55.023192, 21.016751)"><g><path d="M 1.75 -2.234375 L 1.75 -2.015625 L 1.046875 -2.015625 L 1.046875 0 L 0.78125 0 L 0.78125 -2.015625 L 0.078125 -2.015625 L 0.078125 -2.234375 Z M 1.75 -2.234375 "/></g></g></g><g fill="#d4d5d6" fill-opacity="1"><g transform="translate(57.179068, 21.016751)"><g><path d="M 0.296875 0 L 0.296875 -1.6875 L 0.53125 -1.6875 L 0.53125 -1.421875 L 0.5625 -1.421875 C 0.644531 -1.609375 0.796875 -1.703125 1.015625 -1.703125 C 1.128906 -1.703125 1.210938 -1.679688 1.265625 -1.640625 L 1.203125 -1.4375 L 1.171875 -1.421875 C 1.109375 -1.453125 1.039062 -1.46875 0.96875 -1.46875 C 0.832031 -1.46875 0.726562 -1.414062 0.65625 -1.3125 C 0.582031 -1.21875 0.546875 -1.054688 0.546875 -0.828125 L 0.546875 0 Z M 0.296875 0 "/></g></g></g><g fill="#d4d5d6" fill-opacity="1"><g transform="translate(58.809383, 21.016751)"><g><path d="M 0.703125 0.03125 C 0.535156 0.03125 0.40625 -0.0078125 0.3125 -0.09375 C 0.21875 -0.1875 0.171875 -0.3125 0.171875 -0.46875 C 0.171875 -0.570312 0.191406 -0.65625 0.234375 -0.71875 C 0.273438 -0.789062 0.335938 -0.847656 0.421875 -0.890625 C 0.503906 -0.929688 0.617188 -0.96875 0.765625 -1 C 0.890625 -1.019531 0.984375 -1.039062 1.046875 -1.0625 C 1.109375 -1.082031 1.148438 -1.109375 1.171875 -1.140625 C 1.191406 -1.179688 1.203125 -1.222656 1.203125 -1.265625 C 1.203125 -1.347656 1.175781 -1.40625 1.125 -1.4375 C 1.070312 -1.476562 0.988281 -1.5 0.875 -1.5 C 0.757812 -1.5 0.660156 -1.476562 0.578125 -1.4375 C 0.503906 -1.394531 0.4375 -1.332031 0.375 -1.25 L 0.34375 -1.25 L 0.21875 -1.421875 C 0.289062 -1.515625 0.378906 -1.585938 0.484375 -1.640625 C 0.597656 -1.691406 0.726562 -1.71875 0.875 -1.71875 C 1.070312 -1.71875 1.21875 -1.675781 1.3125 -1.59375 C 1.40625 -1.507812 1.453125 -1.390625 1.453125 -1.234375 L 1.453125 -0.328125 C 1.453125 -0.234375 1.492188 -0.1875 1.578125 -0.1875 C 1.597656 -0.1875 1.625 -0.191406 1.65625 -0.203125 L 1.671875 -0.203125 L 1.703125 -0.03125 C 1.679688 -0.0078125 1.65625 0 1.625 0 C 1.59375 0.0078125 1.5625 0.015625 1.53125 0.015625 C 1.4375 0.015625 1.363281 -0.00390625 1.3125 -0.046875 C 1.269531 -0.0859375 1.242188 -0.148438 1.234375 -0.234375 L 1.203125 -0.234375 C 1.148438 -0.140625 1.082031 -0.0703125 1 -0.03125 C 0.925781 0.0078125 0.828125 0.03125 0.703125 0.03125 Z M 0.75 -0.171875 C 0.84375 -0.171875 0.921875 -0.191406 0.984375 -0.234375 C 1.054688 -0.273438 1.113281 -0.332031 1.15625 -0.40625 C 1.195312 -0.488281 1.21875 -0.582031 1.21875 -0.6875 L 1.21875 -0.90625 L 1.1875 -0.90625 C 1.144531 -0.882812 1.097656 -0.863281 1.046875 -0.84375 C 0.992188 -0.820312 0.914062 -0.804688 0.8125 -0.796875 C 0.71875 -0.785156 0.640625 -0.765625 0.578125 -0.734375 C 0.523438 -0.703125 0.484375 -0.664062 0.453125 -0.625 C 0.429688 -0.582031 0.421875 -0.53125 0.421875 -0.46875 C 0.421875 -0.375 0.445312 -0.300781 0.5 -0.25 C 0.5625 -0.195312 0.644531 -0.171875 0.75 -0.171875 Z M 0.75 -0.171875 "/></g></g></g><g fill="#d4d5d6" fill-opacity="1"><g transform="translate(60.883815, 21.016751)"><g><path d="M 0.875 0.03125 C 0.738281 0.03125 0.617188 0 0.515625 -0.0625 C 0.410156 -0.125 0.328125 -0.222656 0.265625 -0.359375 C 0.210938 -0.492188 0.1875 -0.65625 0.1875 -0.84375 C 0.1875 -1.039062 0.21875 -1.203125 0.28125 -1.328125 C 0.34375 -1.460938 0.425781 -1.5625 0.53125 -1.625 C 0.632812 -1.6875 0.757812 -1.71875 0.90625 -1.71875 C 1.019531 -1.71875 1.117188 -1.695312 1.203125 -1.65625 C 1.296875 -1.613281 1.375 -1.546875 1.4375 -1.453125 L 1.46875 -1.453125 L 1.46875 -2.375 L 1.71875 -2.375 L 1.71875 0 L 1.46875 0 L 1.46875 -0.25 L 1.4375 -0.25 C 1.382812 -0.164062 1.3125 -0.0976562 1.21875 -0.046875 C 1.125 0.00390625 1.007812 0.03125 0.875 0.03125 Z M 0.953125 -0.1875 C 1.109375 -0.1875 1.234375 -0.238281 1.328125 -0.34375 C 1.421875 -0.457031 1.46875 -0.625 1.46875 -0.84375 C 1.46875 -1.0625 1.421875 -1.222656 1.328125 -1.328125 C 1.234375 -1.441406 1.109375 -1.5 0.953125 -1.5 C 0.796875 -1.5 0.671875 -1.445312 0.578125 -1.34375 C 0.492188 -1.238281 0.453125 -1.070312 0.453125 -0.84375 C 0.453125 -0.40625 0.617188 -0.1875 0.953125 -0.1875 Z M 0.953125 -0.1875 "/></g></g></g><g fill="#d4d5d6" fill-opacity="1"><g transform="translate(63.228711, 21.016751)"><g><path d="M 1.609375 -0.78125 L 0.453125 -0.78125 C 0.453125 -0.582031 0.5 -0.429688 0.59375 -0.328125 C 0.6875 -0.234375 0.8125 -0.1875 0.96875 -0.1875 C 1.09375 -0.1875 1.191406 -0.207031 1.265625 -0.25 C 1.335938 -0.300781 1.394531 -0.367188 1.4375 -0.453125 L 1.46875 -0.453125 L 1.640625 -0.359375 C 1.585938 -0.234375 1.503906 -0.132812 1.390625 -0.0625 C 1.285156 0 1.144531 0.03125 0.96875 0.03125 C 0.8125 0.03125 0.671875 0 0.546875 -0.0625 C 0.429688 -0.125 0.34375 -0.21875 0.28125 -0.34375 C 0.21875 -0.476562 0.1875 -0.644531 0.1875 -0.84375 C 0.1875 -1.039062 0.21875 -1.203125 0.28125 -1.328125 C 0.351562 -1.460938 0.445312 -1.5625 0.5625 -1.625 C 0.675781 -1.6875 0.804688 -1.71875 0.953125 -1.71875 C 1.171875 -1.71875 1.34375 -1.65625 1.46875 -1.53125 C 1.59375 -1.414062 1.65625 -1.238281 1.65625 -1 C 1.65625 -0.90625 1.648438 -0.84375 1.640625 -0.8125 Z M 1.40625 -1 C 1.394531 -1.175781 1.351562 -1.304688 1.28125 -1.390625 C 1.207031 -1.472656 1.097656 -1.515625 0.953125 -1.515625 C 0.804688 -1.515625 0.691406 -1.472656 0.609375 -1.390625 C 0.523438 -1.304688 0.472656 -1.175781 0.453125 -1 Z M 1.40625 -1 "/></g></g></g><g fill="#d4d5d6" fill-opacity="1"><g transform="translate(65.356928, 21.016751)"><g><path d="M 0.296875 0 L 0.296875 -1.6875 L 0.53125 -1.6875 L 0.53125 -1.421875 L 0.5625 -1.421875 C 0.644531 -1.609375 0.796875 -1.703125 1.015625 -1.703125 C 1.128906 -1.703125 1.210938 -1.679688 1.265625 -1.640625 L 1.203125 -1.4375 L 1.171875 -1.421875 C 1.109375 -1.453125 1.039062 -1.46875 0.96875 -1.46875 C 0.832031 -1.46875 0.726562 -1.414062 0.65625 -1.3125 C 0.582031 -1.21875 0.546875 -1.054688 0.546875 -0.828125 L 0.546875 0 Z M 0.296875 0 "/></g></g></g><g fill="#d4d5d6" fill-opacity="1"><g transform="translate(66.987244, 21.016751)"><g/></g></g><g fill="#d4d5d6" fill-opacity="1"><g transform="translate(68.079703, 21.016751)"><g><path d="M 0.921875 0.03125 C 0.710938 0.03125 0.546875 -0.015625 0.421875 -0.109375 C 0.296875 -0.203125 0.210938 -0.332031 0.171875 -0.5 L 0.375 -0.59375 L 0.40625 -0.578125 C 0.425781 -0.492188 0.457031 -0.425781 0.5 -0.375 C 0.539062 -0.320312 0.59375 -0.28125 0.65625 -0.25 C 0.726562 -0.21875 0.816406 -0.203125 0.921875 -0.203125 C 1.078125 -0.203125 1.195312 -0.25 1.28125 -0.34375 C 1.363281 -0.4375 1.40625 -0.566406 1.40625 -0.734375 C 1.40625 -0.910156 1.363281 -1.046875 1.28125 -1.140625 C 1.195312 -1.234375 1.082031 -1.28125 0.9375 -1.28125 C 0.820312 -1.28125 0.726562 -1.253906 0.65625 -1.203125 C 0.59375 -1.160156 0.535156 -1.09375 0.484375 -1 L 0.265625 -1.015625 L 0.3125 -2.234375 L 1.5625 -2.234375 L 1.5625 -2.015625 L 0.546875 -2.015625 L 0.515625 -1.28125 L 0.546875 -1.265625 C 0.597656 -1.347656 0.660156 -1.40625 0.734375 -1.4375 C 0.816406 -1.476562 0.910156 -1.5 1.015625 -1.5 C 1.148438 -1.5 1.265625 -1.46875 1.359375 -1.40625 C 1.460938 -1.351562 1.539062 -1.269531 1.59375 -1.15625 C 1.644531 -1.039062 1.671875 -0.898438 1.671875 -0.734375 C 1.671875 -0.578125 1.640625 -0.441406 1.578125 -0.328125 C 1.515625 -0.210938 1.425781 -0.125 1.3125 -0.0625 C 1.207031 0 1.078125 0.03125 0.921875 0.03125 Z M 0.921875 0.03125 "/></g></g></g></svg>