<?xml version="1.0" encoding="iso-8859-1"?>
<!-- Uploaded to: SVG Repo, www.svgrepo.com, Generator: SVG Repo Mixer Tools -->
<svg fill="#000000" height="800px" width="800px" version="1.1" id="Layer_1" xmlns="http://www.w3.org/2000/svg" xmlns:xlink="http://www.w3.org/1999/xlink" 
	 viewBox="0 0 496 496" xml:space="preserve">
<g>
	<g>
		<g>
			<path d="M400,3.192l-40,50V128H168h-56c-30.872,0-56,25.128-56,56v104c0,17.648,14.352,32,32,32c5.856,0,11.272-1.696,16-4.448
				V496h128V192h128v264c0,22.056,17.944,40,40,40c22.056,0,40-17.944,40-40V53.192L400,3.192z M183.352,144L168,163.192
				L152.648,144H183.352z M104,288c0,8.824-7.176,16-16,16s-16-7.176-16-16v-80h32V288z M160,480h-40v-16h40V480z M216,480h-40v-16
				h40V480z M216,448h-40V312h-16v136h-40V327.192c18.232-3.72,32-19.872,32-39.192v-8h32v8c0,19.312,13.768,35.472,32,39.192V448z
				 M120,310.528V288v-8h16v8C136,298.416,129.288,307.216,120,310.528z M216,310.528c-9.288-3.312-16-12.112-16-22.528v-8h16
				V310.528z M248,176h-16h-8h-8v88h-96v-88h-16v16H72v-8c0-22.056,17.944-40,40-40h20.152L168,188.808L203.848,144H248V176z
				 M360,176h-96v-32h96V176z M400,28.808L421.76,56h-43.52L400,28.808z M376,72h16v328h-16V72z M424,456c0,13.232-10.768,24-24,24
				s-24-10.768-24-24v-8h48V456z M424,432h-48v-16h48V432z M424,400h-16V72h16V400z"/>
			<path d="M232,64c0-35.288-28.712-64-64-64c-35.288,0-64,28.712-64,64s28.712,64,64,64C203.288,128,232,99.288,232,64z M168,112
				c-26.472,0-48-21.528-48-48s21.528-48,48-48s48,21.528,48,48S194.472,112,168,112z"/>
		</g>
	</g>
</g>
</svg>