<?xml version="1.0" encoding="UTF-8" standalone="no"?>
<!DOCTYPE svg PUBLIC "-//W3C//DTD SVG 1.1//EN" "http://www.w3.org/Graphics/SVG/1.1/DTD/svg11.dtd">
<svg width="100%" height="100%" viewBox="0 0 262 262" version="1.1" xmlns="http://www.w3.org/2000/svg" xmlns:xlink="http://www.w3.org/1999/xlink" xml:space="preserve" xmlns:serif="http://www.serif.com/" style="fill-rule:evenodd;clip-rule:evenodd;stroke-linecap:round;">
    <g transform="matrix(-1,0,0,1,277.937,0)">
        <g opacity="0.4">
            <path d="M211.744,48.497C207.56,80.046 195.375,114.877 167.323,132.975C149.396,144.541 122.645,143.877 106.059,130.357C90.394,117.589 79.907,98.077 88.255,78.343C92.607,68.058 100.921,60.991 112.604,63.42C130.453,67.131 141.159,90.628 143.193,106.75C149.539,157.065 125.168,215.072 83.281,244.071" style="fill:none;fill-rule:nonzero;stroke:white;stroke-width:3px;"/>
            <path d="M120.997,238.896C112.36,241.055 92.494,245.374 82.13,245.374" style="fill:none;fill-rule:nonzero;stroke:white;stroke-width:3px;"/>
            <path d="M82.131,245.373C84.29,236.736 88.609,216.87 88.609,206.505" style="fill:none;fill-rule:nonzero;stroke:white;stroke-width:3px;"/>
        </g>
    </g>
</svg>
