<svg xmlns="http://www.w3.org/2000/svg" xmlns:xlink="http://www.w3.org/1999/xlink" width="100" zoomAndPan="magnify" viewBox="0 0 75 30.000001" height="40" preserveAspectRatio="xMidYMid meet" version="1.0"><defs><g/><clipPath id="edbfea2bff"><path d="M 7.195312 5.917969 L 26 5.917969 L 26 23.339844 L 7.195312 23.339844 Z M 7.195312 5.917969 " clip-rule="nonzero"/></clipPath><clipPath id="2cb81de118"><path d="M 8 5.917969 L 14 5.917969 L 14 12 L 8 12 Z M 8 5.917969 " clip-rule="nonzero"/></clipPath></defs><g fill="#d4d5d6" fill-opacity="1"><g transform="translate(26.231108, 15.867087)"><g><path d="M 4.210938 0 L 2.535156 -2.3125 L 4.046875 -4.445312 L 2.929688 -4.445312 L 1.46875 -2.386719 L 1.46875 -4.445312 L 0.507812 -4.445312 L 0.507812 0 L 1.46875 0 L 1.46875 -2.164062 L 3.035156 0 Z M 4.210938 0 "/></g></g></g><g fill="#d4d5d6" fill-opacity="1"><g transform="translate(30.709031, 15.867087)"><g><path d="M 2.199219 -3.449219 C 1.753906 -3.449219 1.449219 -3.308594 1.199219 -3.003906 L 1.035156 -3.429688 L 0.445312 -3.429688 L 0.445312 0 L 1.371094 0 L 1.371094 -1.777344 C 1.371094 -2.335938 1.574219 -2.574219 2.097656 -2.574219 L 2.503906 -2.574219 L 2.503906 -3.449219 Z M 2.199219 -3.449219 "/></g></g></g><g fill="#d4d5d6" fill-opacity="1"><g transform="translate(33.605388, 15.867087)"><g><path d="M 3.773438 -1.722656 C 3.773438 -2.710938 3.046875 -3.523438 1.996094 -3.523438 C 0.976562 -3.523438 0.214844 -2.742188 0.214844 -1.714844 C 0.214844 -0.6875 0.984375 0.101562 1.996094 0.101562 C 2.792969 0.101562 3.449219 -0.375 3.695312 -1.125 L 2.726562 -1.125 C 2.585938 -0.875 2.316406 -0.722656 1.996094 -0.722656 C 1.542969 -0.722656 1.238281 -0.984375 1.15625 -1.453125 L 3.753906 -1.453125 C 3.765625 -1.542969 3.773438 -1.632812 3.773438 -1.722656 Z M 1.996094 -2.730469 C 2.414062 -2.730469 2.710938 -2.503906 2.84375 -2.082031 L 1.179688 -2.082031 C 1.289062 -2.488281 1.582031 -2.730469 1.996094 -2.730469 Z M 1.996094 -2.730469 "/></g></g></g><g fill="#d4d5d6" fill-opacity="1"><g transform="translate(37.905465, 15.867087)"><g><path d="M 2.960938 -4.660156 L 2.960938 -3.238281 C 2.691406 -3.421875 2.375 -3.523438 2.019531 -3.523438 C 0.976562 -3.523438 0.214844 -2.75 0.214844 -1.707031 C 0.214844 -0.671875 0.976562 0.109375 2.019531 0.109375 C 2.4375 0.109375 2.808594 -0.0390625 3.09375 -0.28125 L 3.203125 0.0078125 L 3.886719 0.0078125 L 3.886719 -4.660156 Z M 2.097656 -0.769531 C 1.554688 -0.769531 1.164062 -1.175781 1.164062 -1.707031 C 1.164062 -2.25 1.554688 -2.648438 2.097656 -2.648438 C 2.636719 -2.648438 3.03125 -2.25 3.03125 -1.707031 C 3.03125 -1.175781 2.636719 -0.769531 2.097656 -0.769531 Z M 2.097656 -0.769531 "/></g></g></g><g fill="#b216f2" fill-opacity="1"><g transform="translate(42.55676, 15.867087)"><g><path d="M 4.210938 0 L 2.535156 -2.3125 L 4.046875 -4.445312 L 2.929688 -4.445312 L 1.46875 -2.386719 L 1.46875 -4.445312 L 0.507812 -4.445312 L 0.507812 0 L 1.46875 0 L 1.46875 -2.164062 L 3.035156 0 Z M 4.210938 0 "/></g></g></g><g fill="#b216f2" fill-opacity="1"><g transform="translate(47.034683, 15.867087)"><g><path d="M 2.070312 0.101562 C 3.132812 0.101562 3.925781 -0.679688 3.925781 -1.714844 C 3.925781 -2.75 3.132812 -3.523438 2.070312 -3.523438 C 1.011719 -3.523438 0.214844 -2.75 0.214844 -1.714844 C 0.214844 -0.679688 1.011719 0.101562 2.070312 0.101562 Z M 2.070312 -0.773438 C 1.535156 -0.773438 1.15625 -1.15625 1.15625 -1.714844 C 1.15625 -2.265625 1.535156 -2.65625 2.070312 -2.65625 C 2.605469 -2.65625 2.984375 -2.265625 2.984375 -1.714844 C 2.984375 -1.15625 2.605469 -0.773438 2.070312 -0.773438 Z M 2.070312 -0.773438 "/></g></g></g><g fill="#b216f2" fill-opacity="1"><g transform="translate(51.493553, 15.867087)"><g><path d="M 2.394531 -3.507812 C 1.929688 -3.507812 1.519531 -3.308594 1.257812 -3.003906 L 1.078125 -3.429688 L 0.445312 -3.429688 L 0.445312 0 L 1.371094 0 L 1.371094 -1.796875 C 1.371094 -2.351562 1.664062 -2.691406 2.140625 -2.691406 C 2.539062 -2.691406 2.738281 -2.445312 2.738281 -1.925781 L 2.738281 0 L 3.664062 0 L 3.664062 -2.078125 C 3.664062 -2.945312 3.175781 -3.507812 2.394531 -3.507812 Z M 2.394531 -3.507812 "/></g></g></g><g fill="#b216f2" fill-opacity="1"><g transform="translate(55.876196, 15.867087)"><g><path d="M 3.773438 -1.722656 C 3.773438 -2.710938 3.046875 -3.523438 1.996094 -3.523438 C 0.976562 -3.523438 0.214844 -2.742188 0.214844 -1.714844 C 0.214844 -0.6875 0.984375 0.101562 1.996094 0.101562 C 2.792969 0.101562 3.449219 -0.375 3.695312 -1.125 L 2.726562 -1.125 C 2.585938 -0.875 2.316406 -0.722656 1.996094 -0.722656 C 1.542969 -0.722656 1.238281 -0.984375 1.15625 -1.453125 L 3.753906 -1.453125 C 3.765625 -1.542969 3.773438 -1.632812 3.773438 -1.722656 Z M 1.996094 -2.730469 C 2.414062 -2.730469 2.710938 -2.503906 2.84375 -2.082031 L 1.179688 -2.082031 C 1.289062 -2.488281 1.582031 -2.730469 1.996094 -2.730469 Z M 1.996094 -2.730469 "/></g></g></g><g fill="#b216f2" fill-opacity="1"><g transform="translate(60.176275, 15.867087)"><g><path d="M 2.039062 0.101562 C 2.933594 0.101562 3.640625 -0.484375 3.796875 -1.347656 L 2.863281 -1.347656 C 2.707031 -0.976562 2.414062 -0.773438 2.039062 -0.773438 C 1.542969 -0.773438 1.15625 -1.1875 1.15625 -1.714844 C 1.15625 -2.25 1.535156 -2.65625 2.039062 -2.65625 C 2.40625 -2.65625 2.71875 -2.453125 2.863281 -2.113281 L 3.785156 -2.113281 C 3.621094 -2.960938 2.933594 -3.523438 2.046875 -3.523438 C 1.003906 -3.523438 0.214844 -2.75 0.214844 -1.722656 C 0.214844 -0.691406 1.003906 0.101562 2.039062 0.101562 Z M 2.039062 0.101562 "/></g></g></g><g fill="#b216f2" fill-opacity="1"><g transform="translate(64.457292, 15.867087)"><g><path d="M 2.121094 -0.824219 C 1.777344 -0.824219 1.589844 -1.015625 1.589844 -1.347656 L 1.589844 -2.679688 L 2.523438 -2.679688 L 2.523438 -3.429688 L 1.574219 -3.429688 L 1.574219 -4.320312 L 1.398438 -4.320312 L 0.0429688 -2.882812 L 0.0429688 -2.679688 L 0.660156 -2.679688 L 0.660156 -1.21875 C 0.660156 -0.464844 1.125 0 1.878906 0 L 2.539062 0 L 2.539062 -0.824219 Z M 2.121094 -0.824219 "/></g></g></g><g clip-path="url(#edbfea2bff)"><path fill="#b216f2" d="M 20.136719 14.511719 L 25.941406 6.359375 C 26.074219 6.175781 25.941406 5.921875 25.71875 5.921875 L 19.394531 5.921875 C 19.304688 5.921875 19.21875 5.964844 19.167969 6.035156 L 13.265625 14.328125 C 13.261719 14.332031 13.257812 14.335938 13.253906 14.339844 C 13.253906 14.34375 13.25 14.34375 13.246094 14.347656 L 13.246094 14.351562 L 7.328125 22.664062 C 7.195312 22.847656 7.328125 23.101562 7.550781 23.101562 L 13.875 23.101562 C 13.964844 23.101562 14.046875 23.058594 14.101562 22.984375 L 16.632812 19.425781 L 19.167969 22.984375 C 19.21875 23.058594 19.304688 23.101562 19.394531 23.101562 L 25.71875 23.101562 C 25.941406 23.101562 26.074219 22.847656 25.941406 22.664062 L 20.136719 14.511719 " fill-opacity="1" fill-rule="nonzero"/></g><g clip-path="url(#2cb81de118)"><path fill="#d4d5d6" d="M 11.304688 11.203125 C 12.765625 11.203125 13.949219 10.019531 13.949219 8.5625 C 13.949219 7.101562 12.765625 5.921875 11.304688 5.921875 C 9.847656 5.921875 8.664062 7.101562 8.664062 8.5625 C 8.664062 10.019531 9.847656 11.203125 11.304688 11.203125 " fill-opacity="1" fill-rule="nonzero"/></g><g fill="#d4d5d6" fill-opacity="1"><g transform="translate(28.400854, 19.365542)"><g><path d="M 0.28125 -0.984375 C 0.238281 -0.984375 0.203125 -1 0.171875 -1.03125 C 0.148438 -1.0625 0.140625 -1.109375 0.140625 -1.171875 C 0.140625 -1.265625 0.160156 -1.347656 0.203125 -1.421875 C 0.253906 -1.492188 0.328125 -1.5625 0.421875 -1.625 L 0.484375 -1.515625 C 0.421875 -1.484375 0.367188 -1.441406 0.328125 -1.390625 C 0.285156 -1.347656 0.265625 -1.300781 0.265625 -1.25 C 0.304688 -1.25 0.335938 -1.234375 0.359375 -1.203125 C 0.390625 -1.179688 0.40625 -1.15625 0.40625 -1.125 C 0.40625 -1.082031 0.390625 -1.046875 0.359375 -1.015625 C 0.335938 -0.992188 0.3125 -0.984375 0.28125 -0.984375 Z M 0.6875 -0.984375 C 0.644531 -0.984375 0.609375 -1 0.578125 -1.03125 C 0.554688 -1.0625 0.546875 -1.109375 0.546875 -1.171875 C 0.546875 -1.265625 0.566406 -1.347656 0.609375 -1.421875 C 0.660156 -1.492188 0.734375 -1.5625 0.828125 -1.625 L 0.890625 -1.515625 C 0.828125 -1.484375 0.773438 -1.441406 0.734375 -1.390625 C 0.691406 -1.347656 0.671875 -1.300781 0.671875 -1.25 C 0.710938 -1.25 0.742188 -1.234375 0.765625 -1.203125 C 0.796875 -1.179688 0.8125 -1.15625 0.8125 -1.125 C 0.8125 -1.082031 0.796875 -1.046875 0.765625 -1.015625 C 0.742188 -0.992188 0.71875 -0.984375 0.6875 -0.984375 Z M 0.6875 -0.984375 "/></g></g></g><g fill="#d4d5d6" fill-opacity="1"><g transform="translate(29.597991, 19.365542)"><g><path d="M 0.859375 0.015625 C 0.722656 0.015625 0.601562 -0.015625 0.5 -0.078125 C 0.394531 -0.140625 0.3125 -0.226562 0.25 -0.34375 C 0.1875 -0.46875 0.15625 -0.613281 0.15625 -0.78125 C 0.15625 -0.945312 0.1875 -1.085938 0.25 -1.203125 C 0.3125 -1.328125 0.394531 -1.421875 0.5 -1.484375 C 0.601562 -1.546875 0.722656 -1.578125 0.859375 -1.578125 C 1.003906 -1.578125 1.125 -1.550781 1.21875 -1.5 C 1.320312 -1.445312 1.394531 -1.363281 1.4375 -1.25 L 1.3125 -1.171875 L 1.296875 -1.171875 C 1.253906 -1.265625 1.195312 -1.328125 1.125 -1.359375 C 1.050781 -1.398438 0.960938 -1.421875 0.859375 -1.421875 C 0.765625 -1.421875 0.675781 -1.394531 0.59375 -1.34375 C 0.519531 -1.300781 0.460938 -1.234375 0.421875 -1.140625 C 0.378906 -1.046875 0.359375 -0.925781 0.359375 -0.78125 C 0.359375 -0.632812 0.378906 -0.515625 0.421875 -0.421875 C 0.460938 -0.328125 0.519531 -0.253906 0.59375 -0.203125 C 0.675781 -0.160156 0.765625 -0.140625 0.859375 -0.140625 C 0.972656 -0.140625 1.066406 -0.164062 1.140625 -0.21875 C 1.210938 -0.269531 1.265625 -0.351562 1.296875 -0.46875 L 1.328125 -0.46875 L 1.453125 -0.40625 C 1.410156 -0.269531 1.335938 -0.164062 1.234375 -0.09375 C 1.140625 -0.0195312 1.015625 0.015625 0.859375 0.015625 Z M 0.859375 0.015625 "/></g></g></g><g fill="#d4d5d6" fill-opacity="1"><g transform="translate(31.354199, 19.365542)"><g><path d="M 0.671875 0.015625 C 0.566406 0.015625 0.472656 -0.00390625 0.390625 -0.046875 C 0.304688 -0.0976562 0.238281 -0.164062 0.1875 -0.25 C 0.144531 -0.34375 0.125 -0.457031 0.125 -0.59375 C 0.125 -0.71875 0.144531 -0.828125 0.1875 -0.921875 C 0.238281 -1.015625 0.304688 -1.082031 0.390625 -1.125 C 0.472656 -1.175781 0.566406 -1.203125 0.671875 -1.203125 C 0.785156 -1.203125 0.882812 -1.175781 0.96875 -1.125 C 1.050781 -1.082031 1.113281 -1.015625 1.15625 -0.921875 C 1.195312 -0.828125 1.21875 -0.71875 1.21875 -0.59375 C 1.21875 -0.457031 1.195312 -0.34375 1.15625 -0.25 C 1.113281 -0.164062 1.050781 -0.0976562 0.96875 -0.046875 C 0.882812 -0.00390625 0.785156 0.015625 0.671875 0.015625 Z M 0.671875 -0.140625 C 0.796875 -0.140625 0.890625 -0.175781 0.953125 -0.25 C 1.015625 -0.320312 1.046875 -0.4375 1.046875 -0.59375 C 1.046875 -0.75 1.015625 -0.863281 0.953125 -0.9375 C 0.890625 -1.007812 0.796875 -1.046875 0.671875 -1.046875 C 0.554688 -1.046875 0.46875 -1.007812 0.40625 -0.9375 C 0.34375 -0.863281 0.3125 -0.75 0.3125 -0.59375 C 0.3125 -0.4375 0.34375 -0.320312 0.40625 -0.25 C 0.46875 -0.175781 0.554688 -0.140625 0.671875 -0.140625 Z M 0.671875 -0.140625 "/></g></g></g><g fill="#d4d5d6" fill-opacity="1"><g transform="translate(32.93082, 19.365542)"><g><path d="M 0.203125 0 L 0.203125 -1.171875 L 0.375 -1.171875 L 0.375 -1 L 0.390625 -0.984375 C 0.429688 -1.054688 0.484375 -1.109375 0.546875 -1.140625 C 0.609375 -1.179688 0.679688 -1.203125 0.765625 -1.203125 C 0.910156 -1.203125 1.015625 -1.164062 1.078125 -1.09375 C 1.140625 -1.019531 1.171875 -0.910156 1.171875 -0.765625 L 1.171875 0 L 1 0 L 1 -0.75 C 1 -0.820312 0.988281 -0.878906 0.96875 -0.921875 C 0.945312 -0.960938 0.914062 -0.992188 0.875 -1.015625 C 0.84375 -1.035156 0.796875 -1.046875 0.734375 -1.046875 C 0.628906 -1.046875 0.539062 -1.007812 0.46875 -0.9375 C 0.40625 -0.875 0.375 -0.765625 0.375 -0.609375 L 0.375 0 Z M 0.203125 0 "/></g></g></g><g fill="#d4d5d6" fill-opacity="1"><g transform="translate(34.511718, 19.365542)"><g><path d="M 0.203125 0 L 0.203125 -1.171875 L 0.375 -1.171875 L 0.375 -1 L 0.390625 -0.984375 C 0.429688 -1.054688 0.484375 -1.109375 0.546875 -1.140625 C 0.609375 -1.179688 0.679688 -1.203125 0.765625 -1.203125 C 0.910156 -1.203125 1.015625 -1.164062 1.078125 -1.09375 C 1.140625 -1.019531 1.171875 -0.910156 1.171875 -0.765625 L 1.171875 0 L 1 0 L 1 -0.75 C 1 -0.820312 0.988281 -0.878906 0.96875 -0.921875 C 0.945312 -0.960938 0.914062 -0.992188 0.875 -1.015625 C 0.84375 -1.035156 0.796875 -1.046875 0.734375 -1.046875 C 0.628906 -1.046875 0.539062 -1.007812 0.46875 -0.9375 C 0.40625 -0.875 0.375 -0.765625 0.375 -0.609375 L 0.375 0 Z M 0.203125 0 "/></g></g></g><g fill="#d4d5d6" fill-opacity="1"><g transform="translate(36.092615, 19.365542)"><g><path d="M 1.125 -0.546875 L 0.3125 -0.546875 C 0.320312 -0.398438 0.359375 -0.296875 0.421875 -0.234375 C 0.484375 -0.171875 0.566406 -0.140625 0.671875 -0.140625 C 0.753906 -0.140625 0.820312 -0.148438 0.875 -0.171875 C 0.925781 -0.203125 0.96875 -0.25 1 -0.3125 L 1.03125 -0.3125 L 1.140625 -0.25 C 1.109375 -0.164062 1.050781 -0.0976562 0.96875 -0.046875 C 0.894531 -0.00390625 0.796875 0.015625 0.671875 0.015625 C 0.554688 0.015625 0.457031 -0.00390625 0.375 -0.046875 C 0.300781 -0.0859375 0.238281 -0.15625 0.1875 -0.25 C 0.144531 -0.34375 0.125 -0.457031 0.125 -0.59375 C 0.125 -0.726562 0.144531 -0.835938 0.1875 -0.921875 C 0.238281 -1.015625 0.304688 -1.082031 0.390625 -1.125 C 0.472656 -1.175781 0.566406 -1.203125 0.671875 -1.203125 C 0.816406 -1.203125 0.929688 -1.15625 1.015625 -1.0625 C 1.097656 -0.976562 1.144531 -0.851562 1.15625 -0.6875 C 1.15625 -0.625 1.148438 -0.582031 1.140625 -0.5625 Z M 0.984375 -0.6875 C 0.972656 -0.8125 0.941406 -0.898438 0.890625 -0.953125 C 0.835938 -1.015625 0.765625 -1.046875 0.671875 -1.046875 C 0.566406 -1.046875 0.484375 -1.015625 0.421875 -0.953125 C 0.367188 -0.898438 0.332031 -0.8125 0.3125 -0.6875 Z M 0.984375 -0.6875 "/></g></g></g><g fill="#d4d5d6" fill-opacity="1"><g transform="translate(37.573029, 19.365542)"><g><path d="M 0.671875 0.015625 C 0.566406 0.015625 0.472656 -0.00390625 0.390625 -0.046875 C 0.304688 -0.0976562 0.238281 -0.164062 0.1875 -0.25 C 0.144531 -0.34375 0.125 -0.457031 0.125 -0.59375 C 0.125 -0.71875 0.144531 -0.828125 0.1875 -0.921875 C 0.238281 -1.015625 0.304688 -1.082031 0.390625 -1.125 C 0.472656 -1.175781 0.566406 -1.203125 0.671875 -1.203125 C 0.796875 -1.203125 0.894531 -1.175781 0.96875 -1.125 C 1.039062 -1.082031 1.097656 -1.019531 1.140625 -0.9375 L 1.015625 -0.859375 L 1 -0.859375 C 0.957031 -0.921875 0.910156 -0.96875 0.859375 -1 C 0.816406 -1.03125 0.753906 -1.046875 0.671875 -1.046875 C 0.597656 -1.046875 0.535156 -1.023438 0.484375 -0.984375 C 0.429688 -0.953125 0.390625 -0.898438 0.359375 -0.828125 C 0.328125 -0.765625 0.3125 -0.6875 0.3125 -0.59375 C 0.3125 -0.488281 0.328125 -0.398438 0.359375 -0.328125 C 0.390625 -0.265625 0.429688 -0.21875 0.484375 -0.1875 C 0.535156 -0.15625 0.597656 -0.140625 0.671875 -0.140625 C 0.753906 -0.140625 0.820312 -0.15625 0.875 -0.1875 C 0.925781 -0.226562 0.96875 -0.285156 1 -0.359375 L 1.03125 -0.359375 L 1.140625 -0.296875 C 1.109375 -0.203125 1.050781 -0.125 0.96875 -0.0625 C 0.894531 -0.0078125 0.796875 0.015625 0.671875 0.015625 Z M 0.671875 0.015625 "/></g></g></g><g fill="#d4d5d6" fill-opacity="1"><g transform="translate(39.011753, 19.365542)"><g><path d="M 0.796875 -0.1875 L 0.859375 -0.0625 C 0.828125 -0.03125 0.785156 -0.0078125 0.734375 0 C 0.691406 0.0078125 0.644531 0.015625 0.59375 0.015625 C 0.375 0.015625 0.265625 -0.09375 0.265625 -0.3125 L 0.265625 -1.03125 L 0.046875 -1.03125 L 0.046875 -1.171875 L 0.265625 -1.171875 L 0.265625 -1.421875 L 0.4375 -1.453125 L 0.4375 -1.171875 L 0.8125 -1.171875 L 0.8125 -1.03125 L 0.4375 -1.03125 L 0.4375 -0.34375 C 0.4375 -0.207031 0.492188 -0.140625 0.609375 -0.140625 C 0.671875 -0.140625 0.726562 -0.15625 0.78125 -0.1875 Z M 0.796875 -0.1875 "/></g></g></g><g fill="#d4d5d6" fill-opacity="1"><g transform="translate(40.132993, 19.365542)"><g/></g></g><g fill="#d4d5d6" fill-opacity="1"><g transform="translate(40.89292, 19.365542)"><g><path d="M 0.40625 0.21875 L 0.234375 0.21875 L 0.234375 -1.65625 L 0.40625 -1.65625 Z M 0.40625 0.21875 "/></g></g></g><g fill="#d4d5d6" fill-opacity="1"><g transform="translate(41.755469, 19.365542)"><g/></g></g><g fill="#d4d5d6" fill-opacity="1"><g transform="translate(42.515395, 19.365542)"><g><path d="M 0.484375 0.015625 C 0.367188 0.015625 0.273438 -0.0078125 0.203125 -0.0625 C 0.140625 -0.125 0.109375 -0.210938 0.109375 -0.328125 C 0.109375 -0.398438 0.125 -0.457031 0.15625 -0.5 C 0.1875 -0.550781 0.234375 -0.59375 0.296875 -0.625 C 0.359375 -0.65625 0.4375 -0.675781 0.53125 -0.6875 C 0.613281 -0.707031 0.675781 -0.722656 0.71875 -0.734375 C 0.769531 -0.753906 0.800781 -0.773438 0.8125 -0.796875 C 0.832031 -0.816406 0.84375 -0.847656 0.84375 -0.890625 C 0.84375 -0.941406 0.820312 -0.976562 0.78125 -1 C 0.75 -1.03125 0.691406 -1.046875 0.609375 -1.046875 C 0.535156 -1.046875 0.46875 -1.03125 0.40625 -1 C 0.351562 -0.96875 0.304688 -0.925781 0.265625 -0.875 L 0.234375 -0.875 L 0.15625 -1 C 0.207031 -1.0625 0.269531 -1.109375 0.34375 -1.140625 C 0.414062 -1.179688 0.503906 -1.203125 0.609375 -1.203125 C 0.742188 -1.203125 0.84375 -1.171875 0.90625 -1.109375 C 0.976562 -1.046875 1.015625 -0.960938 1.015625 -0.859375 L 1.015625 -0.234375 C 1.015625 -0.171875 1.039062 -0.140625 1.09375 -0.140625 C 1.113281 -0.140625 1.132812 -0.140625 1.15625 -0.140625 L 1.171875 -0.140625 L 1.1875 -0.015625 C 1.175781 -0.00390625 1.160156 0 1.140625 0 C 1.117188 0.0078125 1.09375 0.015625 1.0625 0.015625 C 1 0.015625 0.953125 0 0.921875 -0.03125 C 0.890625 -0.0625 0.867188 -0.101562 0.859375 -0.15625 L 0.84375 -0.15625 C 0.800781 -0.09375 0.75 -0.046875 0.6875 -0.015625 C 0.632812 0.00390625 0.566406 0.015625 0.484375 0.015625 Z M 0.53125 -0.109375 C 0.59375 -0.109375 0.644531 -0.125 0.6875 -0.15625 C 0.738281 -0.1875 0.773438 -0.226562 0.796875 -0.28125 C 0.828125 -0.34375 0.84375 -0.410156 0.84375 -0.484375 L 0.84375 -0.625 L 0.828125 -0.640625 C 0.796875 -0.617188 0.757812 -0.597656 0.71875 -0.578125 C 0.6875 -0.566406 0.632812 -0.554688 0.5625 -0.546875 C 0.5 -0.546875 0.445312 -0.535156 0.40625 -0.515625 C 0.363281 -0.492188 0.332031 -0.46875 0.3125 -0.4375 C 0.300781 -0.40625 0.296875 -0.367188 0.296875 -0.328125 C 0.296875 -0.253906 0.316406 -0.195312 0.359375 -0.15625 C 0.398438 -0.125 0.457031 -0.109375 0.53125 -0.109375 Z M 0.53125 -0.109375 "/></g></g></g><g fill="#d4d5d6" fill-opacity="1"><g transform="translate(43.958394, 19.365542)"><g><path d="M 0.203125 0 L 0.203125 -1.171875 L 0.375 -1.171875 L 0.375 -1 L 0.390625 -0.984375 C 0.429688 -1.054688 0.484375 -1.109375 0.546875 -1.140625 C 0.609375 -1.179688 0.679688 -1.203125 0.765625 -1.203125 C 0.910156 -1.203125 1.015625 -1.164062 1.078125 -1.09375 C 1.140625 -1.019531 1.171875 -0.910156 1.171875 -0.765625 L 1.171875 0 L 1 0 L 1 -0.75 C 1 -0.820312 0.988281 -0.878906 0.96875 -0.921875 C 0.945312 -0.960938 0.914062 -0.992188 0.875 -1.015625 C 0.84375 -1.035156 0.796875 -1.046875 0.734375 -1.046875 C 0.628906 -1.046875 0.539062 -1.007812 0.46875 -0.9375 C 0.40625 -0.875 0.375 -0.765625 0.375 -0.609375 L 0.375 0 Z M 0.203125 0 "/></g></g></g><g fill="#d4d5d6" fill-opacity="1"><g transform="translate(45.539291, 19.365542)"><g><path d="M 0.484375 0.015625 C 0.367188 0.015625 0.273438 -0.0078125 0.203125 -0.0625 C 0.140625 -0.125 0.109375 -0.210938 0.109375 -0.328125 C 0.109375 -0.398438 0.125 -0.457031 0.15625 -0.5 C 0.1875 -0.550781 0.234375 -0.59375 0.296875 -0.625 C 0.359375 -0.65625 0.4375 -0.675781 0.53125 -0.6875 C 0.613281 -0.707031 0.675781 -0.722656 0.71875 -0.734375 C 0.769531 -0.753906 0.800781 -0.773438 0.8125 -0.796875 C 0.832031 -0.816406 0.84375 -0.847656 0.84375 -0.890625 C 0.84375 -0.941406 0.820312 -0.976562 0.78125 -1 C 0.75 -1.03125 0.691406 -1.046875 0.609375 -1.046875 C 0.535156 -1.046875 0.46875 -1.03125 0.40625 -1 C 0.351562 -0.96875 0.304688 -0.925781 0.265625 -0.875 L 0.234375 -0.875 L 0.15625 -1 C 0.207031 -1.0625 0.269531 -1.109375 0.34375 -1.140625 C 0.414062 -1.179688 0.503906 -1.203125 0.609375 -1.203125 C 0.742188 -1.203125 0.84375 -1.171875 0.90625 -1.109375 C 0.976562 -1.046875 1.015625 -0.960938 1.015625 -0.859375 L 1.015625 -0.234375 C 1.015625 -0.171875 1.039062 -0.140625 1.09375 -0.140625 C 1.113281 -0.140625 1.132812 -0.140625 1.15625 -0.140625 L 1.171875 -0.140625 L 1.1875 -0.015625 C 1.175781 -0.00390625 1.160156 0 1.140625 0 C 1.117188 0.0078125 1.09375 0.015625 1.0625 0.015625 C 1 0.015625 0.953125 0 0.921875 -0.03125 C 0.890625 -0.0625 0.867188 -0.101562 0.859375 -0.15625 L 0.84375 -0.15625 C 0.800781 -0.09375 0.75 -0.046875 0.6875 -0.015625 C 0.632812 0.00390625 0.566406 0.015625 0.484375 0.015625 Z M 0.53125 -0.109375 C 0.59375 -0.109375 0.644531 -0.125 0.6875 -0.15625 C 0.738281 -0.1875 0.773438 -0.226562 0.796875 -0.28125 C 0.828125 -0.34375 0.84375 -0.410156 0.84375 -0.484375 L 0.84375 -0.625 L 0.828125 -0.640625 C 0.796875 -0.617188 0.757812 -0.597656 0.71875 -0.578125 C 0.6875 -0.566406 0.632812 -0.554688 0.5625 -0.546875 C 0.5 -0.546875 0.445312 -0.535156 0.40625 -0.515625 C 0.363281 -0.492188 0.332031 -0.46875 0.3125 -0.4375 C 0.300781 -0.40625 0.296875 -0.367188 0.296875 -0.328125 C 0.296875 -0.253906 0.316406 -0.195312 0.359375 -0.15625 C 0.398438 -0.125 0.457031 -0.109375 0.53125 -0.109375 Z M 0.53125 -0.109375 "/></g></g></g><g fill="#d4d5d6" fill-opacity="1"><g transform="translate(46.98229, 19.365542)"><g><path d="M 0.46875 0.015625 C 0.382812 0.015625 0.316406 -0.00390625 0.265625 -0.046875 C 0.222656 -0.0976562 0.203125 -0.171875 0.203125 -0.265625 L 0.203125 -1.65625 L 0.375 -1.65625 L 0.375 -0.265625 C 0.375 -0.222656 0.382812 -0.191406 0.40625 -0.171875 C 0.425781 -0.148438 0.453125 -0.140625 0.484375 -0.140625 C 0.515625 -0.140625 0.539062 -0.140625 0.5625 -0.140625 L 0.578125 -0.140625 L 0.59375 0 C 0.582031 0.0078125 0.566406 0.015625 0.546875 0.015625 C 0.523438 0.015625 0.5 0.015625 0.46875 0.015625 Z M 0.46875 0.015625 "/></g></g></g><g fill="#d4d5d6" fill-opacity="1"><g transform="translate(47.846976, 19.365542)"><g><path d="M 0.234375 0.5 C 0.191406 0.5 0.15625 0.492188 0.125 0.484375 C 0.09375 0.484375 0.0625 0.476562 0.03125 0.46875 L 0.0625 0.328125 L 0.09375 0.3125 C 0.101562 0.320312 0.117188 0.328125 0.140625 0.328125 C 0.171875 0.335938 0.203125 0.34375 0.234375 0.34375 C 0.273438 0.34375 0.3125 0.335938 0.34375 0.328125 C 0.375 0.316406 0.398438 0.296875 0.421875 0.265625 C 0.453125 0.234375 0.472656 0.191406 0.484375 0.140625 L 0.53125 0.03125 L 0.0625 -1.171875 L 0.25 -1.171875 L 0.625 -0.21875 L 0.640625 -0.21875 L 1 -1.171875 L 1.171875 -1.171875 L 0.65625 0.1875 C 0.625 0.257812 0.585938 0.316406 0.546875 0.359375 C 0.515625 0.410156 0.472656 0.445312 0.421875 0.46875 C 0.367188 0.488281 0.304688 0.5 0.234375 0.5 Z M 0.234375 0.5 "/></g></g></g><g fill="#d4d5d6" fill-opacity="1"><g transform="translate(49.313492, 19.365542)"><g><path d="M 0.9375 0 L 0.078125 0 L 0.078125 -0.15625 L 0.734375 -1.015625 L 0.71875 -1.03125 L 0.109375 -1.03125 L 0.109375 -1.171875 L 0.9375 -1.171875 L 0.9375 -1.03125 L 0.28125 -0.171875 L 0.296875 -0.140625 L 0.9375 -0.140625 Z M 0.9375 0 "/></g></g></g><g fill="#d4d5d6" fill-opacity="1"><g transform="translate(50.564076, 19.365542)"><g><path d="M 1.125 -0.546875 L 0.3125 -0.546875 C 0.320312 -0.398438 0.359375 -0.296875 0.421875 -0.234375 C 0.484375 -0.171875 0.566406 -0.140625 0.671875 -0.140625 C 0.753906 -0.140625 0.820312 -0.148438 0.875 -0.171875 C 0.925781 -0.203125 0.96875 -0.25 1 -0.3125 L 1.03125 -0.3125 L 1.140625 -0.25 C 1.109375 -0.164062 1.050781 -0.0976562 0.96875 -0.046875 C 0.894531 -0.00390625 0.796875 0.015625 0.671875 0.015625 C 0.554688 0.015625 0.457031 -0.00390625 0.375 -0.046875 C 0.300781 -0.0859375 0.238281 -0.15625 0.1875 -0.25 C 0.144531 -0.34375 0.125 -0.457031 0.125 -0.59375 C 0.125 -0.726562 0.144531 -0.835938 0.1875 -0.921875 C 0.238281 -1.015625 0.304688 -1.082031 0.390625 -1.125 C 0.472656 -1.175781 0.566406 -1.203125 0.671875 -1.203125 C 0.816406 -1.203125 0.929688 -1.15625 1.015625 -1.0625 C 1.097656 -0.976562 1.144531 -0.851562 1.15625 -0.6875 C 1.15625 -0.625 1.148438 -0.582031 1.140625 -0.5625 Z M 0.984375 -0.6875 C 0.972656 -0.8125 0.941406 -0.898438 0.890625 -0.953125 C 0.835938 -1.015625 0.765625 -1.046875 0.671875 -1.046875 C 0.566406 -1.046875 0.484375 -1.015625 0.421875 -0.953125 C 0.367188 -0.898438 0.332031 -0.8125 0.3125 -0.6875 Z M 0.984375 -0.6875 "/></g></g></g><g fill="#d4d5d6" fill-opacity="1"><g transform="translate(52.04449, 19.365542)"><g/></g></g><g fill="#d4d5d6" fill-opacity="1"><g transform="translate(52.804416, 19.365542)"><g><path d="M 0.40625 0.21875 L 0.234375 0.21875 L 0.234375 -1.65625 L 0.40625 -1.65625 Z M 0.40625 0.21875 "/></g></g></g><g fill="#d4d5d6" fill-opacity="1"><g transform="translate(53.666964, 19.365542)"><g/></g></g><g fill="#d4d5d6" fill-opacity="1"><g transform="translate(54.42689, 19.365542)"><g><path d="M 0.65625 0.015625 C 0.539062 0.015625 0.441406 0 0.359375 -0.03125 C 0.285156 -0.0703125 0.222656 -0.128906 0.171875 -0.203125 C 0.128906 -0.273438 0.109375 -0.359375 0.109375 -0.453125 C 0.109375 -0.554688 0.132812 -0.640625 0.1875 -0.703125 C 0.25 -0.773438 0.332031 -0.832031 0.4375 -0.875 L 0.453125 -0.90625 C 0.390625 -0.96875 0.347656 -1.023438 0.328125 -1.078125 C 0.304688 -1.128906 0.296875 -1.1875 0.296875 -1.25 C 0.296875 -1.3125 0.3125 -1.367188 0.34375 -1.421875 C 0.375 -1.472656 0.414062 -1.507812 0.46875 -1.53125 C 0.53125 -1.5625 0.601562 -1.578125 0.6875 -1.578125 C 0.757812 -1.578125 0.820312 -1.5625 0.875 -1.53125 C 0.925781 -1.507812 0.96875 -1.472656 1 -1.421875 C 1.03125 -1.378906 1.046875 -1.328125 1.046875 -1.265625 C 1.046875 -1.171875 1.015625 -1.085938 0.953125 -1.015625 C 0.898438 -0.953125 0.816406 -0.898438 0.703125 -0.859375 L 0.6875 -0.828125 L 1.0625 -0.34375 C 1.09375 -0.394531 1.113281 -0.453125 1.125 -0.515625 C 1.132812 -0.585938 1.140625 -0.671875 1.140625 -0.765625 L 1.140625 -0.796875 L 1.296875 -0.796875 C 1.296875 -0.546875 1.253906 -0.351562 1.171875 -0.21875 C 1.191406 -0.1875 1.210938 -0.164062 1.234375 -0.15625 C 1.253906 -0.144531 1.28125 -0.140625 1.3125 -0.140625 C 1.332031 -0.140625 1.351562 -0.140625 1.375 -0.140625 L 1.390625 -0.140625 L 1.40625 -0.015625 C 1.394531 -0.00390625 1.378906 0 1.359375 0 C 1.335938 0.0078125 1.316406 0.015625 1.296875 0.015625 C 1.242188 0.015625 1.195312 0.00390625 1.15625 -0.015625 C 1.125 -0.0351562 1.09375 -0.0664062 1.0625 -0.109375 L 1.046875 -0.109375 C 0.953125 -0.0234375 0.820312 0.015625 0.65625 0.015625 Z M 0.609375 -0.953125 C 0.703125 -0.992188 0.769531 -1.035156 0.8125 -1.078125 C 0.851562 -1.128906 0.875 -1.191406 0.875 -1.265625 C 0.875 -1.316406 0.859375 -1.359375 0.828125 -1.390625 C 0.796875 -1.421875 0.75 -1.4375 0.6875 -1.4375 C 0.625 -1.4375 0.570312 -1.414062 0.53125 -1.375 C 0.5 -1.34375 0.484375 -1.296875 0.484375 -1.234375 C 0.484375 -1.191406 0.488281 -1.148438 0.5 -1.109375 C 0.519531 -1.066406 0.554688 -1.015625 0.609375 -0.953125 Z M 0.65625 -0.140625 C 0.78125 -0.140625 0.878906 -0.164062 0.953125 -0.21875 L 0.515625 -0.78125 C 0.453125 -0.75 0.398438 -0.707031 0.359375 -0.65625 C 0.316406 -0.601562 0.296875 -0.535156 0.296875 -0.453125 C 0.296875 -0.390625 0.3125 -0.332031 0.34375 -0.28125 C 0.375 -0.226562 0.414062 -0.191406 0.46875 -0.171875 C 0.519531 -0.148438 0.582031 -0.140625 0.65625 -0.140625 Z M 0.65625 -0.140625 "/></g></g></g><g fill="#d4d5d6" fill-opacity="1"><g transform="translate(56.101856, 19.365542)"><g/></g></g><g fill="#d4d5d6" fill-opacity="1"><g transform="translate(56.861783, 19.365542)"><g><path d="M 1.21875 -1.5625 L 1.21875 -1.40625 L 0.734375 -1.40625 L 0.734375 0 L 0.546875 0 L 0.546875 -1.40625 L 0.0625 -1.40625 L 0.0625 -1.5625 Z M 1.21875 -1.5625 "/></g></g></g><g fill="#d4d5d6" fill-opacity="1"><g transform="translate(58.361439, 19.365542)"><g><path d="M 0.203125 0 L 0.203125 -1.171875 L 0.375 -1.171875 L 0.375 -1 L 0.390625 -0.984375 C 0.441406 -1.117188 0.546875 -1.1875 0.703125 -1.1875 C 0.785156 -1.1875 0.847656 -1.171875 0.890625 -1.140625 L 0.84375 -1 L 0.8125 -1 C 0.769531 -1.019531 0.722656 -1.03125 0.671875 -1.03125 C 0.578125 -1.03125 0.503906 -0.992188 0.453125 -0.921875 C 0.398438 -0.847656 0.375 -0.734375 0.375 -0.578125 L 0.375 0 Z M 0.203125 0 "/></g></g></g><g fill="#d4d5d6" fill-opacity="1"><g transform="translate(59.495507, 19.365542)"><g><path d="M 0.484375 0.015625 C 0.367188 0.015625 0.273438 -0.0078125 0.203125 -0.0625 C 0.140625 -0.125 0.109375 -0.210938 0.109375 -0.328125 C 0.109375 -0.398438 0.125 -0.457031 0.15625 -0.5 C 0.1875 -0.550781 0.234375 -0.59375 0.296875 -0.625 C 0.359375 -0.65625 0.4375 -0.675781 0.53125 -0.6875 C 0.613281 -0.707031 0.675781 -0.722656 0.71875 -0.734375 C 0.769531 -0.753906 0.800781 -0.773438 0.8125 -0.796875 C 0.832031 -0.816406 0.84375 -0.847656 0.84375 -0.890625 C 0.84375 -0.941406 0.820312 -0.976562 0.78125 -1 C 0.75 -1.03125 0.691406 -1.046875 0.609375 -1.046875 C 0.535156 -1.046875 0.46875 -1.03125 0.40625 -1 C 0.351562 -0.96875 0.304688 -0.925781 0.265625 -0.875 L 0.234375 -0.875 L 0.15625 -1 C 0.207031 -1.0625 0.269531 -1.109375 0.34375 -1.140625 C 0.414062 -1.179688 0.503906 -1.203125 0.609375 -1.203125 C 0.742188 -1.203125 0.84375 -1.171875 0.90625 -1.109375 C 0.976562 -1.046875 1.015625 -0.960938 1.015625 -0.859375 L 1.015625 -0.234375 C 1.015625 -0.171875 1.039062 -0.140625 1.09375 -0.140625 C 1.113281 -0.140625 1.132812 -0.140625 1.15625 -0.140625 L 1.171875 -0.140625 L 1.1875 -0.015625 C 1.175781 -0.00390625 1.160156 0 1.140625 0 C 1.117188 0.0078125 1.09375 0.015625 1.0625 0.015625 C 1 0.015625 0.953125 0 0.921875 -0.03125 C 0.890625 -0.0625 0.867188 -0.101562 0.859375 -0.15625 L 0.84375 -0.15625 C 0.800781 -0.09375 0.75 -0.046875 0.6875 -0.015625 C 0.632812 0.00390625 0.566406 0.015625 0.484375 0.015625 Z M 0.53125 -0.109375 C 0.59375 -0.109375 0.644531 -0.125 0.6875 -0.15625 C 0.738281 -0.1875 0.773438 -0.226562 0.796875 -0.28125 C 0.828125 -0.34375 0.84375 -0.410156 0.84375 -0.484375 L 0.84375 -0.625 L 0.828125 -0.640625 C 0.796875 -0.617188 0.757812 -0.597656 0.71875 -0.578125 C 0.6875 -0.566406 0.632812 -0.554688 0.5625 -0.546875 C 0.5 -0.546875 0.445312 -0.535156 0.40625 -0.515625 C 0.363281 -0.492188 0.332031 -0.46875 0.3125 -0.4375 C 0.300781 -0.40625 0.296875 -0.367188 0.296875 -0.328125 C 0.296875 -0.253906 0.316406 -0.195312 0.359375 -0.15625 C 0.398438 -0.125 0.457031 -0.109375 0.53125 -0.109375 Z M 0.53125 -0.109375 "/></g></g></g><g fill="#d4d5d6" fill-opacity="1"><g transform="translate(60.938508, 19.365542)"><g><path d="M 0.609375 0.015625 C 0.515625 0.015625 0.429688 -0.00390625 0.359375 -0.046875 C 0.285156 -0.0859375 0.226562 -0.15625 0.1875 -0.25 C 0.144531 -0.34375 0.125 -0.457031 0.125 -0.59375 C 0.125 -0.726562 0.144531 -0.835938 0.1875 -0.921875 C 0.226562 -1.015625 0.285156 -1.082031 0.359375 -1.125 C 0.441406 -1.175781 0.53125 -1.203125 0.625 -1.203125 C 0.707031 -1.203125 0.78125 -1.1875 0.84375 -1.15625 C 0.90625 -1.125 0.957031 -1.078125 1 -1.015625 L 1.03125 -1.015625 L 1.03125 -1.65625 L 1.203125 -1.65625 L 1.203125 0 L 1.03125 0 L 1.03125 -0.171875 L 1 -0.171875 C 0.96875 -0.117188 0.914062 -0.0703125 0.84375 -0.03125 C 0.78125 0 0.703125 0.015625 0.609375 0.015625 Z M 0.671875 -0.140625 C 0.773438 -0.140625 0.859375 -0.175781 0.921875 -0.25 C 0.992188 -0.320312 1.03125 -0.4375 1.03125 -0.59375 C 1.03125 -0.738281 0.992188 -0.847656 0.921875 -0.921875 C 0.859375 -1.003906 0.773438 -1.046875 0.671875 -1.046875 C 0.554688 -1.046875 0.46875 -1.007812 0.40625 -0.9375 C 0.34375 -0.863281 0.3125 -0.75 0.3125 -0.59375 C 0.3125 -0.289062 0.429688 -0.140625 0.671875 -0.140625 Z M 0.671875 -0.140625 "/></g></g></g><g fill="#d4d5d6" fill-opacity="1"><g transform="translate(62.569648, 19.365542)"><g><path d="M 1.125 -0.546875 L 0.3125 -0.546875 C 0.320312 -0.398438 0.359375 -0.296875 0.421875 -0.234375 C 0.484375 -0.171875 0.566406 -0.140625 0.671875 -0.140625 C 0.753906 -0.140625 0.820312 -0.148438 0.875 -0.171875 C 0.925781 -0.203125 0.96875 -0.25 1 -0.3125 L 1.03125 -0.3125 L 1.140625 -0.25 C 1.109375 -0.164062 1.050781 -0.0976562 0.96875 -0.046875 C 0.894531 -0.00390625 0.796875 0.015625 0.671875 0.015625 C 0.554688 0.015625 0.457031 -0.00390625 0.375 -0.046875 C 0.300781 -0.0859375 0.238281 -0.15625 0.1875 -0.25 C 0.144531 -0.34375 0.125 -0.457031 0.125 -0.59375 C 0.125 -0.726562 0.144531 -0.835938 0.1875 -0.921875 C 0.238281 -1.015625 0.304688 -1.082031 0.390625 -1.125 C 0.472656 -1.175781 0.566406 -1.203125 0.671875 -1.203125 C 0.816406 -1.203125 0.929688 -1.15625 1.015625 -1.0625 C 1.097656 -0.976562 1.144531 -0.851562 1.15625 -0.6875 C 1.15625 -0.625 1.148438 -0.582031 1.140625 -0.5625 Z M 0.984375 -0.6875 C 0.972656 -0.8125 0.941406 -0.898438 0.890625 -0.953125 C 0.835938 -1.015625 0.765625 -1.046875 0.671875 -1.046875 C 0.566406 -1.046875 0.484375 -1.015625 0.421875 -0.953125 C 0.367188 -0.898438 0.332031 -0.8125 0.3125 -0.6875 Z M 0.984375 -0.6875 "/></g></g></g><g fill="#d4d5d6" fill-opacity="1"><g transform="translate(64.050063, 19.365542)"><g><path d="M 0.078125 -1.09375 C 0.140625 -1.132812 0.1875 -1.175781 0.21875 -1.21875 C 0.257812 -1.269531 0.285156 -1.320312 0.296875 -1.375 C 0.253906 -1.375 0.21875 -1.382812 0.1875 -1.40625 C 0.164062 -1.425781 0.15625 -1.457031 0.15625 -1.5 C 0.15625 -1.539062 0.164062 -1.570312 0.1875 -1.59375 C 0.207031 -1.613281 0.238281 -1.625 0.28125 -1.625 C 0.320312 -1.625 0.351562 -1.609375 0.375 -1.578125 C 0.40625 -1.554688 0.421875 -1.515625 0.421875 -1.453125 C 0.421875 -1.347656 0.394531 -1.257812 0.34375 -1.1875 C 0.300781 -1.113281 0.234375 -1.046875 0.140625 -0.984375 Z M 0.484375 -1.09375 C 0.546875 -1.132812 0.59375 -1.175781 0.625 -1.21875 C 0.664062 -1.269531 0.691406 -1.320312 0.703125 -1.375 C 0.660156 -1.375 0.625 -1.382812 0.59375 -1.40625 C 0.570312 -1.425781 0.5625 -1.457031 0.5625 -1.5 C 0.5625 -1.539062 0.570312 -1.570312 0.59375 -1.59375 C 0.613281 -1.613281 0.644531 -1.625 0.6875 -1.625 C 0.726562 -1.625 0.757812 -1.609375 0.78125 -1.578125 C 0.8125 -1.554688 0.828125 -1.515625 0.828125 -1.453125 C 0.828125 -1.347656 0.800781 -1.257812 0.75 -1.1875 C 0.707031 -1.113281 0.640625 -1.046875 0.546875 -0.984375 Z M 0.484375 -1.09375 "/></g></g></g></svg>